<?xml version="1.0" standalone="no"?>
<!DOCTYPE svg PUBLIC "-//W3C//DTD SVG 20010904//EN"
 "http://www.w3.org/TR/2001/REC-SVG-20010904/DTD/svg10.dtd">
<svg version="1.0" xmlns="http://www.w3.org/2000/svg"
 width="120.000000pt" height="18.000000pt" viewBox="0 0 120.000000 18.000000"
 preserveAspectRatio="xMidYMid meet">

<g transform="translate(0.000000,18.000000) scale(0.100000,-0.100000)"
fill="#000000" stroke="none">
<path d="M10 105 c0 -52 4 -69 20 -85 23 -23 39 -25 74 -9 28 13 36 35 36 107
0 39 -4 52 -15 52 -11 0 -15 -16 -17 -67 l-3 -68 -30 0 -30 0 -3 68 c-2 51 -6
67 -17 67 -12 0 -15 -15 -15 -65z"/>
<path d="M410 142 c0 -26 -2 -28 -34 -24 -28 3 -37 -1 -52 -23 -16 -24 -16
-30 -3 -53 19 -34 42 -47 65 -37 11 4 27 7 37 6 15 -2 17 7 17 78 0 65 -3 81
-15 81 -10 0 -15 -10 -15 -28z m-5 -77 c0 -25 -4 -31 -27 -33 -19 -2 -28 2
-33 18 -8 27 12 52 39 48 16 -2 21 -10 21 -33z"/>
<path d="M950 90 c0 -64 3 -80 15 -80 10 0 15 10 15 28 l1 27 20 -28 c11 -15
30 -27 42 -27 19 0 19 2 -8 30 l-29 30 24 25 c30 31 6 34 -27 3 l-23 -21 0 46
c0 35 -4 47 -15 47 -12 0 -15 -16 -15 -80z"/>
<path d="M716 127 c-13 -14 -16 -22 -8 -25 7 -2 12 -16 12 -32 0 -16 3 -35 6
-44 7 -17 54 -22 54 -6 0 6 -7 10 -15 10 -10 0 -15 11 -15 35 0 24 5 35 15 35
8 0 15 5 15 10 0 6 -7 10 -15 10 -8 0 -15 7 -15 15 0 20 -11 18 -34 -8z"/>
<path d="M170 64 c0 -40 4 -54 14 -54 10 0 16 14 18 42 2 33 8 44 22 46 24 5
36 -14 36 -55 0 -18 5 -33 11 -33 6 0 9 21 7 53 l-3 52 -52 2 -53 1 0 -54z"/>
<path d="M486 104 c-22 -21 -20 -60 4 -84 24 -24 49 -25 76 -6 24 18 10 34
-16 18 -22 -14 -50 -6 -50 14 0 10 13 14 45 14 49 0 53 5 29 38 -18 26 -65 30
-88 6z m72 -21 c2 -9 -7 -13 -27 -13 -30 0 -39 9 -24 24 11 10 46 3 51 -11z"/>
<path d="M620 63 c0 -29 5 -53 10 -53 6 0 10 12 10 28 0 32 9 46 33 55 29 11
19 25 -18 24 l-35 -1 0 -53z"/>
<path d="M821 106 c-9 -11 -9 -16 0 -21 6 -4 15 -2 19 5 9 14 42 10 47 -7 3
-7 -10 -13 -34 -15 -33 -3 -38 -6 -38 -27 0 -29 25 -47 51 -36 11 4 27 7 37 6
14 -2 17 6 17 41 0 24 -5 49 -12 56 -16 16 -73 15 -87 -2z m69 -55 c0 -5 -7
-14 -15 -21 -18 -15 -42 1 -31 19 8 13 46 15 46 2z"/>
<path d="M1084 95 c-22 -33 -11 -73 23 -86 29 -11 73 2 73 21 0 12 -10 13 -29
1 -9 -6 -22 -6 -33 0 -31 17 -20 29 27 29 25 0 45 5 45 11 0 52 -76 69 -106
24z m74 -12 c2 -8 -6 -13 -22 -13 -26 0 -40 12 -29 24 11 11 46 2 51 -11z"/>
</g>
</svg>
